<svg id="close-o" xmlns="http://www.w3.org/2000/svg" width="8" height="8" viewBox="0 0 8 8">
  <path id="Path_291" data-name="Path 291" d="M10.614,8.062a.364.364,0,0,0-.5-.532l-1.064.992L8.062,7.458a.364.364,0,0,0-.532.5l.992,1.064-1.064.992a.364.364,0,1,0,.5.532L9.018,9.55l.992,1.064a.364.364,0,1,0,.532-.5L9.55,9.054Z" transform="translate(-5.036 -5.036)" fill="#279d9f"/>
  <path id="Path_292" data-name="Path 292" d="M1,5A4,4,0,1,1,5,9,4,4,0,0,1,1,5ZM5,8.273A3.273,3.273,0,1,1,8.273,5,3.273,3.273,0,0,1,5,8.273Z" transform="translate(-1 -1)" fill="#279d9f" fill-rule="evenodd"/>
</svg>
