<svg id="Group_1667" data-name="Group 1667" xmlns="http://www.w3.org/2000/svg" width="16" height="16" viewBox="0 0 16 16">
  <path id="Path_1479" data-name="Path 1479" d="M0,0H16V16H0Z" fill="none"/>
  <path id="Path_1480" data-name="Path 1480" d="M8.733,2a6.733,6.733,0,1,0,6.733,6.733A6.736,6.736,0,0,0,8.733,2Zm0,12.12A5.387,5.387,0,1,1,14.12,8.733,5.394,5.394,0,0,1,8.733,14.12Zm2.612-7.885L7.387,10.194,6.121,8.928a.671.671,0,0,0-.949.949l1.744,1.744a.671.671,0,0,0,.949,0L12.3,7.185a.671.671,0,0,0,0-.949.679.679,0,0,0-.956,0Z" transform="translate(-0.733 -0.733)" fill="#9c9c9c"/>
</svg>
