<svg width="114" height="113" viewBox="0 0 114 113" fill="none" xmlns="http://www.w3.org/2000/svg">
<path d="M0.865827 56.7725C-0.108649 25.8309 26.2505 0.269057 56.7411 0.285164C88.5284 0.285164 113.526 25.6376 113.253 56.7725C112.979 88.7853 88.3351 112.64 56.7411 112.809C25.6465 112.946 0.41483 87.3437 0.865827 56.7725ZM57.3129 98.3689C66.1718 99.279 74.1287 95.7515 81.6748 90.9194C86.9982 87.5128 88.5042 82.6485 85.4036 78.8392C83.821 76.8561 81.9151 75.1544 79.7661 73.8057C70.2871 67.9911 60.1719 65.6797 49.1628 67.8381C41.971 69.2474 35.359 72.0178 29.939 77.0271C25.7673 80.8928 26.4438 86.184 30.9216 89.7195C38.5563 95.7596 47.0769 98.9166 57.3129 98.3689ZM70.875 42.9205C70.875 34.6253 64.996 28.4725 56.9747 28.4242C53.1866 28.4411 49.5589 29.9551 46.8825 32.636C44.2062 35.3169 42.6983 38.9472 42.6877 42.7353C42.6233 49.9834 49.1789 56.5068 56.5317 56.5712C64.5047 56.6437 70.875 50.5874 70.875 42.9205Z" fill="#F1F1F1"/>
</svg>
