<svg xmlns="http://www.w3.org/2000/svg" width="108.307" height="96" viewBox="0 0 108.307 96">
  <path id="Path_1478" data-name="Path 1478" d="M81.867,73.859h0l-69.3-69.3A5.352,5.352,0,0,0,5,12.133L22.913,29.99A37.313,37.313,0,0,0,19.768,40.65a21.322,21.322,0,0,0,5.011,42.323H75.9L90.289,97.419a5.352,5.352,0,1,0,7.569-7.569ZM24.778,72.313a10.661,10.661,0,1,1,0-21.322,5.33,5.33,0,0,0,5.33-5.33,26.652,26.652,0,0,1,1.066-7.409L65.236,72.313Zm66.2-41.471A37.313,37.313,0,0,0,56.761,8.348,35.927,35.927,0,0,0,44.394,10.48,5.33,5.33,0,0,0,47.912,20.5a26.172,26.172,0,0,1,8.848-1.493,26.652,26.652,0,0,1,25.213,18.07,5.33,5.33,0,0,0,4.158,3.571,15.991,15.991,0,0,1,9.861,25.533,5.311,5.311,0,1,0,8.315,6.61,26.652,26.652,0,0,0-13.326-41.95Z" transform="translate(-1.664 -2.996)" fill="#333"/>
</svg>
